# MagicaVoxel @ Ephtracy

# group
o 

# material
mtllib enterSchoolVer2.mtl
usemtl palette

# normals
vn -1 0 0
vn 1 0 0
vn 0 0 1
vn 0 0 -1
vn 0 -1 0
vn 0 1 0

# texcoords
vt 0.0449219 0.5
vt 0.560547 0.5
vt 0.587891 0.5
vt 0.654297 0.5
vt 0.775391 0.5
vt 0.958984 0.5
vt 0.962891 0.5
vt 0.966797 0.5
vt 0.978516 0.5
vt 0.994141 0.5

# verts
v 0 2 0
v 0 2 -2.2
v 0 2 -4
v 0 2.1 0
v 0 2.1 -2.2
v 0 2.1 -2.4
v 0 2.1 -3.6
v 0 2.2 -2.2
v 0 2.2 -2.4
v 0 2.2 -2.7
v 0 2.3 -2.4
v 0 2.3 -2.7
v 0 2.3 -3.6
v 0 2.4 -2.7
v 0 2.4 -2.9
v 0 2.4 -3.6
v 0 2.5 -2.9
v 0 2.5 -3.1
v 0 2.5 -3.6
v 0 2.6 -3.1
v 0 2.6 -3.6
v 0 2.6 -3.7
v 0 3.5 -3.7
v 0 3.5 -4
v 0 3.8 -3.6
v 0 3.8 -4
v 0.2 2.1 -2.1
v 0.2 2.1 -2.2
v 0.2 2.2 -2.1
v 0.2 2.2 -2.2
v 0.2 2.2 -2.3
v 0.2 2.2 -2.4
v 0.2 2.3 -2.3
v 0.2 2.3 -2.4
v 0.2 2.3 -2.6
v 0.2 2.3 -2.7
v 0.2 2.4 -2.6
v 0.2 2.4 -2.7
v 0.3 2.4 -2.8
v 0.3 2.4 -2.9
v 0.3 2.5 -2.8
v 0.3 2.5 -2.9
v 0.3 2.5 -3
v 0.3 2.5 -3.1
v 0.3 2.6 -3
v 0.3 2.6 -3.1
v 0.4 2.3 -2.5
v 0.4 2.3 -2.6
v 0.4 2.4 -2.5
v 0.4 2.4 -2.6
v 0.5 2.4 -2.7
v 0.5 2.4 -2.8
v 0.5 2.5 -2.7
v 0.5 2.5 -2.8
v 0.6 2.1 -2
v 0.6 2.1 -2.1
v 0.6 2.2 -2
v 0.6 2.2 -2.1
v 0.6 2.2 -2.2
v 0.6 2.2 -2.3
v 0.6 2.3 -2.2
v 0.6 2.3 -2.3
v 0.7 2.3 -2.4
v 0.7 2.3 -2.5
v 0.7 2.4 -2.4
v 0.7 2.4 -2.5
v 0.7 2.5 -2.9
v 0.7 2.5 -3
v 0.7 2.6 -2.9
v 0.7 2.6 -3
v 0.8 2.4 -2.6
v 0.8 2.4 -2.7
v 0.8 2.5 -2.6
v 0.8 2.5 -2.7
v 0.8 2.5 -2.8
v 0.8 2.5 -2.9
v 0.8 2.6 -2.8
v 0.8 2.6 -2.9
v 2.1 2.8 -3.9
v 2.1 2.8 -4
v 2.1 2.9 -3.9
v 2.1 2.9 -4
v 1.4 2.8 -3.9
v 1.4 2.8 -4
v 1.4 2.9 -3.9
v 1.4 2.9 -4
v 3.2 2.5 -2.8
v 3.2 2.5 -2.9
v 3.2 2.6 -2.8
v 3.2 2.6 -2.9
v 3.3 2.4 -2.6
v 3.3 2.4 -2.7
v 3.3 2.5 -2.6
v 3.3 2.5 -2.7
v 3.3 2.5 -2.9
v 3.3 2.5 -3
v 3.3 2.6 -2.9
v 3.3 2.6 -3
v 3.4 2.3 -2.4
v 3.4 2.3 -2.5
v 3.4 2.4 -2.4
v 3.4 2.4 -2.5
v 3.5 2.1 -2
v 3.5 2.1 -2.1
v 3.5 2.2 -2
v 3.5 2.2 -2.1
v 3.5 2.2 -2.2
v 3.5 2.2 -2.3
v 3.5 2.3 -2.2
v 3.5 2.3 -2.3
v 3.5 2.4 -2.7
v 3.5 2.4 -2.8
v 3.5 2.5 -2.7
v 3.5 2.5 -2.8
v 3.6 2.3 -2.5
v 3.6 2.3 -2.6
v 3.6 2.4 -2.5
v 3.6 2.4 -2.6
v 3.7 2.4 -2.8
v 3.7 2.4 -2.9
v 3.7 2.5 -2.8
v 3.7 2.5 -2.9
v 3.7 2.5 -3
v 3.7 2.5 -3.1
v 3.7 2.6 -3
v 3.7 2.6 -3.1
v 3.8 2.1 -2.1
v 3.8 2.1 -2.2
v 3.8 2.2 -2.1
v 3.8 2.2 -2.2
v 3.8 2.2 -2.3
v 3.8 2.2 -2.4
v 3.8 2.3 -2.3
v 3.8 2.3 -2.4
v 3.8 2.3 -2.6
v 3.8 2.3 -2.7
v 3.8 2.4 -2.6
v 3.8 2.4 -2.7
v 4 2 0
v 4 2 -2.2
v 4 2 -4
v 4 2.1 0
v 4 2.1 -2.2
v 4 2.1 -2.4
v 4 2.1 -3.6
v 4 2.2 -2.2
v 4 2.2 -2.4
v 4 2.2 -2.7
v 4 2.3 -2.4
v 4 2.3 -2.7
v 4 2.3 -3.6
v 4 2.4 -2.7
v 4 2.4 -2.9
v 4 2.4 -3.6
v 4 2.5 -2.9
v 4 2.5 -3.1
v 4 2.5 -3.6
v 4 2.6 -3.1
v 4 2.6 -3.6
v 4 2.6 -3.7
v 4 3.5 -3.7
v 4 3.5 -4
v 4 3.8 -3.6
v 4 3.8 -4
v 0 2 0
v 0 2.1 0
v 4 2 0
v 4 2.1 0
v 0.6 2.1 -2
v 0.6 2.2 -2
v 3.5 2.1 -2
v 3.5 2.2 -2
v 0.2 2.1 -2.1
v 0.2 2.2 -2.1
v 0.6 2.1 -2.1
v 0.6 2.2 -2.1
v 3.5 2.1 -2.1
v 3.5 2.2 -2.1
v 3.8 2.1 -2.1
v 3.8 2.2 -2.1
v 0 2.1 -2.2
v 0 2.2 -2.2
v 0.2 2.1 -2.2
v 0.2 2.2 -2.2
v 0.6 2.2 -2.2
v 0.6 2.3 -2.2
v 3.5 2.2 -2.2
v 3.5 2.3 -2.2
v 3.8 2.1 -2.2
v 3.8 2.2 -2.2
v 4 2.1 -2.2
v 4 2.2 -2.2
v 0.2 2.2 -2.3
v 0.2 2.3 -2.3
v 0.6 2.2 -2.3
v 0.6 2.3 -2.3
v 3.5 2.2 -2.3
v 3.5 2.3 -2.3
v 3.8 2.2 -2.3
v 3.8 2.3 -2.3
v 0 2.2 -2.4
v 0 2.3 -2.4
v 0.2 2.2 -2.4
v 0.2 2.3 -2.4
v 0.7 2.3 -2.4
v 0.7 2.4 -2.4
v 3.4 2.3 -2.4
v 3.4 2.4 -2.4
v 3.8 2.2 -2.4
v 3.8 2.3 -2.4
v 4 2.2 -2.4
v 4 2.3 -2.4
v 0.4 2.3 -2.5
v 0.4 2.4 -2.5
v 0.7 2.3 -2.5
v 0.7 2.4 -2.5
v 3.4 2.3 -2.5
v 3.4 2.4 -2.5
v 3.6 2.3 -2.5
v 3.6 2.4 -2.5
v 0.2 2.3 -2.6
v 0.2 2.4 -2.6
v 0.4 2.3 -2.6
v 0.4 2.4 -2.6
v 0.8 2.4 -2.6
v 0.8 2.5 -2.6
v 3.3 2.4 -2.6
v 3.3 2.5 -2.6
v 3.6 2.3 -2.6
v 3.6 2.4 -2.6
v 3.8 2.3 -2.6
v 3.8 2.4 -2.6
v 0 2.3 -2.7
v 0 2.4 -2.7
v 0.2 2.3 -2.7
v 0.2 2.4 -2.7
v 0.5 2.4 -2.7
v 0.5 2.5 -2.7
v 0.8 2.4 -2.7
v 0.8 2.5 -2.7
v 3.3 2.4 -2.7
v 3.3 2.5 -2.7
v 3.5 2.4 -2.7
v 3.5 2.5 -2.7
v 3.8 2.3 -2.7
v 3.8 2.4 -2.7
v 4 2.3 -2.7
v 4 2.4 -2.7
v 0.3 2.4 -2.8
v 0.3 2.5 -2.8
v 0.5 2.4 -2.8
v 0.5 2.5 -2.8
v 0.8 2.5 -2.8
v 0.8 2.6 -2.8
v 3.2 2.5 -2.8
v 3.2 2.6 -2.8
v 3.5 2.4 -2.8
v 3.5 2.5 -2.8
v 3.7 2.4 -2.8
v 3.7 2.5 -2.8
v 0 2.4 -2.9
v 0 2.5 -2.9
v 0.3 2.4 -2.9
v 0.3 2.5 -2.9
v 0.7 2.5 -2.9
v 0.7 2.6 -2.9
v 0.8 2.5 -2.9
v 0.8 2.6 -2.9
v 3.2 2.5 -2.9
v 3.2 2.6 -2.9
v 3.3 2.5 -2.9
v 3.3 2.6 -2.9
v 3.7 2.4 -2.9
v 3.7 2.5 -2.9
v 4 2.4 -2.9
v 4 2.5 -2.9
v 0.3 2.5 -3
v 0.3 2.6 -3
v 0.7 2.5 -3
v 0.7 2.6 -3
v 3.3 2.5 -3
v 3.3 2.6 -3
v 3.7 2.5 -3
v 3.7 2.6 -3
v 0 2.5 -3.1
v 0 2.6 -3.1
v 0.3 2.5 -3.1
v 0.3 2.6 -3.1
v 3.7 2.5 -3.1
v 3.7 2.6 -3.1
v 4 2.5 -3.1
v 4 2.6 -3.1
v 0 2.6 -3.6
v 0 3.8 -3.6
v 0.1 2.6 -3.6
v 0.3 2.6 -3.6
v 0.3 3.4 -3.6
v 0.5 2.6 -3.6
v 0.5 3.3 -3.6
v 0.5 3.4 -3.6
v 0.6 2.8 -3.6
v 0.6 3 -3.6
v 0.6 3.1 -3.6
v 0.6 3.2 -3.6
v 0.7 2.8 -3.6
v 0.7 3 -3.6
v 0.9 2.8 -3.6
v 0.9 3 -3.6
v 1 2.8 -3.6
v 1 3 -3.6
v 1 3.1 -3.6
v 1 3.2 -3.6
v 1.1 2.6 -3.6
v 1.1 3.3 -3.6
v 1.1 3.4 -3.6
v 1.2 3.4 -3.6
v 1.2 3.6 -3.6
v 1.3 2.6 -3.6
v 1.3 3.3 -3.6
v 1.3 3.4 -3.6
v 1.4 2.8 -3.6
v 1.4 3 -3.6
v 1.4 3.1 -3.6
v 1.4 3.2 -3.6
v 1.5 2.8 -3.6
v 1.5 3 -3.6
v 1.7 2.8 -3.6
v 1.7 3 -3.6
v 1.8 2.8 -3.6
v 1.8 3 -3.6
v 1.8 3.1 -3.6
v 1.8 3.2 -3.6
v 1.9 2.6 -3.6
v 1.9 3.3 -3.6
v 1.9 3.4 -3.6
v 1.9 3.6 -3.6
v 2.1 2.6 -3.6
v 2.1 3.3 -3.6
v 2.1 3.4 -3.6
v 2.1 3.6 -3.6
v 2.2 2.8 -3.6
v 2.2 3 -3.6
v 2.2 3.1 -3.6
v 2.2 3.2 -3.6
v 2.3 2.8 -3.6
v 2.3 3 -3.6
v 2.5 2.8 -3.6
v 2.5 3 -3.6
v 2.6 2.8 -3.6
v 2.6 3 -3.6
v 2.6 3.1 -3.6
v 2.6 3.2 -3.6
v 2.7 2.6 -3.6
v 2.7 3.3 -3.6
v 2.7 3.4 -3.6
v 2.8 3.4 -3.6
v 2.8 3.6 -3.6
v 2.9 2.6 -3.6
v 2.9 3.3 -3.6
v 2.9 3.4 -3.6
v 3 2.8 -3.6
v 3 3 -3.6
v 3 3.1 -3.6
v 3 3.2 -3.6
v 3.1 2.8 -3.6
v 3.1 3 -3.6
v 3.3 2.8 -3.6
v 3.3 3 -3.6
v 3.4 2.8 -3.6
v 3.4 3 -3.6
v 3.4 3.1 -3.6
v 3.4 3.2 -3.6
v 3.5 2.6 -3.6
v 3.5 3.3 -3.6
v 3.5 3.4 -3.6
v 3.7 2.6 -3.6
v 3.7 3.4 -3.6
v 3.9 2.6 -3.6
v 4 2.6 -3.6
v 4 3.8 -3.6
v 1.4 2.8 -3.9
v 1.4 2.9 -3.9
v 2.1 2.8 -3.9
v 2.1 2.9 -3.9
v 0 2 -4
v 0 3.5 -4
v 0 3.8 -4
v 1.4 2.8 -4
v 1.4 2.9 -4
v 2.1 2.8 -4
v 2.1 2.9 -4
v 4 2 -4
v 4 3.5 -4
v 4 3.8 -4
v 0 2 0
v 4 2 0
v 0.6 2 -2
v 3.4 2 -2
v 0.2 2 -2.1
v 0.6 2 -2.1
v 3.4 2 -2.1
v 3.8 2 -2.1
v 0 2 -2.2
v 0.2 2 -2.2
v 3.8 2 -2.2
v 4 2 -2.2
v 0.2 2 -3.6
v 3.8 2 -3.6
v 0 2 -4
v 4 2 -4
v 1.4 2.9 -3.9
v 2.1 2.9 -3.9
v 1.4 2.9 -4
v 2.1 2.9 -4
v 0 2.1 0
v 4 2.1 0
v 0.6 2.1 -2
v 3.5 2.1 -2
v 0.2 2.1 -2.1
v 0.6 2.1 -2.1
v 3.5 2.1 -2.1
v 3.8 2.1 -2.1
v 0 2.1 -2.2
v 0.2 2.1 -2.2
v 3.8 2.1 -2.2
v 4 2.1 -2.2
v 0.6 2.2 -2
v 3.5 2.2 -2
v 0.2 2.2 -2.1
v 0.6 2.2 -2.1
v 3.5 2.2 -2.1
v 3.8 2.2 -2.1
v 0 2.2 -2.2
v 0.2 2.2 -2.2
v 0.6 2.2 -2.2
v 3.5 2.2 -2.2
v 3.8 2.2 -2.2
v 4 2.2 -2.2
v 0.2 2.2 -2.3
v 0.6 2.2 -2.3
v 3.5 2.2 -2.3
v 3.8 2.2 -2.3
v 0 2.2 -2.4
v 0.2 2.2 -2.4
v 3.8 2.2 -2.4
v 4 2.2 -2.4
v 0.6 2.3 -2.2
v 3.5 2.3 -2.2
v 0.2 2.3 -2.3
v 0.6 2.3 -2.3
v 3.5 2.3 -2.3
v 3.8 2.3 -2.3
v 0 2.3 -2.4
v 0.2 2.3 -2.4
v 0.7 2.3 -2.4
v 3.4 2.3 -2.4
v 3.8 2.3 -2.4
v 4 2.3 -2.4
v 0.4 2.3 -2.5
v 0.7 2.3 -2.5
v 3.4 2.3 -2.5
v 3.6 2.3 -2.5
v 0.2 2.3 -2.6
v 0.4 2.3 -2.6
v 3.6 2.3 -2.6
v 3.8 2.3 -2.6
v 0 2.3 -2.7
v 0.2 2.3 -2.7
v 3.8 2.3 -2.7
v 4 2.3 -2.7
v 0.7 2.4 -2.4
v 3.4 2.4 -2.4
v 0.4 2.4 -2.5
v 0.7 2.4 -2.5
v 3.4 2.4 -2.5
v 3.6 2.4 -2.5
v 0.2 2.4 -2.6
v 0.4 2.4 -2.6
v 0.8 2.4 -2.6
v 3.3 2.4 -2.6
v 3.6 2.4 -2.6
v 3.8 2.4 -2.6
v 0 2.4 -2.7
v 0.2 2.4 -2.7
v 0.5 2.4 -2.7
v 0.8 2.4 -2.7
v 3.3 2.4 -2.7
v 3.5 2.4 -2.7
v 3.8 2.4 -2.7
v 4 2.4 -2.7
v 0.3 2.4 -2.8
v 0.5 2.4 -2.8
v 3.5 2.4 -2.8
v 3.7 2.4 -2.8
v 0 2.4 -2.9
v 0.3 2.4 -2.9
v 3.7 2.4 -2.9
v 4 2.4 -2.9
v 0.8 2.5 -2.6
v 3.3 2.5 -2.6
v 0.5 2.5 -2.7
v 0.8 2.5 -2.7
v 3.3 2.5 -2.7
v 3.5 2.5 -2.7
v 0.3 2.5 -2.8
v 0.5 2.5 -2.8
v 0.8 2.5 -2.8
v 3.2 2.5 -2.8
v 3.5 2.5 -2.8
v 3.7 2.5 -2.8
v 0 2.5 -2.9
v 0.3 2.5 -2.9
v 0.7 2.5 -2.9
v 0.8 2.5 -2.9
v 3.2 2.5 -2.9
v 3.3 2.5 -2.9
v 3.7 2.5 -2.9
v 4 2.5 -2.9
v 0.3 2.5 -3
v 0.7 2.5 -3
v 3.3 2.5 -3
v 3.7 2.5 -3
v 0 2.5 -3.1
v 0.3 2.5 -3.1
v 3.7 2.5 -3.1
v 4 2.5 -3.1
v 0.8 2.6 -2.8
v 3.2 2.6 -2.8
v 0.7 2.6 -2.9
v 0.8 2.6 -2.9
v 0.9 2.6 -2.9
v 3.1 2.6 -2.9
v 3.2 2.6 -2.9
v 3.3 2.6 -2.9
v 0.3 2.6 -3
v 0.7 2.6 -3
v 0.8 2.6 -3
v 0.9 2.6 -3
v 3.1 2.6 -3
v 3.2 2.6 -3
v 3.3 2.6 -3
v 3.7 2.6 -3
v 0 2.6 -3.1
v 0.3 2.6 -3.1
v 0.4 2.6 -3.1
v 0.8 2.6 -3.1
v 3.2 2.6 -3.1
v 3.6 2.6 -3.1
v 3.7 2.6 -3.1
v 4 2.6 -3.1
v 0.1 2.6 -3.2
v 0.4 2.6 -3.2
v 3.6 2.6 -3.2
v 3.9 2.6 -3.2
v 0 2.6 -3.6
v 0.1 2.6 -3.6
v 0.3 2.6 -3.6
v 0.5 2.6 -3.6
v 1.1 2.6 -3.6
v 1.3 2.6 -3.6
v 1.9 2.6 -3.6
v 2.1 2.6 -3.6
v 2.7 2.6 -3.6
v 2.9 2.6 -3.6
v 3.5 2.6 -3.6
v 3.7 2.6 -3.6
v 3.9 2.6 -3.6
v 4 2.6 -3.6
v 1.4 2.8 -3.9
v 2.1 2.8 -3.9
v 1.4 2.8 -4
v 2.1 2.8 -4
v 0 3.8 -3.6
v 4 3.8 -3.6
v 0 3.8 -4
v 4 3.8 -4

# faces
f 4/8/1 2/8/1 1/8/1
f 5/6/1 3/6/1 2/6/1
f 5/8/1 2/8/1 4/8/1
f 6/6/1 3/6/1 5/6/1
f 7/6/1 3/6/1 6/6/1
f 8/4/1 6/4/1 5/4/1
f 9/9/1 7/9/1 6/9/1
f 9/4/1 6/4/1 8/4/1
f 10/9/1 7/9/1 9/9/1
f 11/1/1 10/1/1 9/1/1
f 12/9/1 7/9/1 10/9/1
f 12/1/1 10/1/1 11/1/1
f 13/6/1 3/6/1 7/6/1
f 13/9/1 7/9/1 12/9/1
f 14/3/1 13/3/1 12/3/1
f 15/3/1 13/3/1 14/3/1
f 16/6/1 3/6/1 13/6/1
f 16/3/1 13/3/1 15/3/1
f 17/1/1 16/1/1 15/1/1
f 18/1/1 16/1/1 17/1/1
f 19/6/1 3/6/1 16/6/1
f 19/1/1 16/1/1 18/1/1
f 20/4/1 19/4/1 18/4/1
f 21/6/1 3/6/1 19/6/1
f 21/4/1 19/4/1 20/4/1
f 22/6/1 3/6/1 21/6/1
f 23/6/1 3/6/1 22/6/1
f 23/8/1 22/8/1 21/8/1
f 24/6/1 3/6/1 23/6/1
f 25/8/1 23/8/1 21/8/1
f 25/8/1 24/8/1 23/8/1
f 26/8/1 24/8/1 25/8/1
f 29/4/1 28/4/1 27/4/1
f 30/4/1 28/4/1 29/4/1
f 33/1/1 32/1/1 31/1/1
f 34/1/1 32/1/1 33/1/1
f 37/3/1 36/3/1 35/3/1
f 38/3/1 36/3/1 37/3/1
f 41/1/1 40/1/1 39/1/1
f 42/1/1 40/1/1 41/1/1
f 45/4/1 44/4/1 43/4/1
f 46/4/1 44/4/1 45/4/1
f 49/3/1 48/3/1 47/3/1
f 50/3/1 48/3/1 49/3/1
f 53/1/1 52/1/1 51/1/1
f 54/1/1 52/1/1 53/1/1
f 57/4/1 56/4/1 55/4/1
f 58/4/1 56/4/1 57/4/1
f 61/1/1 60/1/1 59/1/1
f 62/1/1 60/1/1 61/1/1
f 65/3/1 64/3/1 63/3/1
f 66/3/1 64/3/1 65/3/1
f 69/4/1 68/4/1 67/4/1
f 70/4/1 68/4/1 69/4/1
f 73/1/1 72/1/1 71/1/1
f 74/1/1 72/1/1 73/1/1
f 77/4/1 76/4/1 75/4/1
f 78/4/1 76/4/1 77/4/1
f 81/6/1 80/6/1 79/6/1
f 82/6/1 80/6/1 81/6/1
f 83/6/2 84/6/2 85/6/2
f 85/6/2 84/6/2 86/6/2
f 87/4/2 88/4/2 89/4/2
f 89/4/2 88/4/2 90/4/2
f 91/1/2 92/1/2 93/1/2
f 93/1/2 92/1/2 94/1/2
f 95/4/2 96/4/2 97/4/2
f 97/4/2 96/4/2 98/4/2
f 99/3/2 100/3/2 101/3/2
f 101/3/2 100/3/2 102/3/2
f 103/4/2 104/4/2 105/4/2
f 105/4/2 104/4/2 106/4/2
f 107/1/2 108/1/2 109/1/2
f 109/1/2 108/1/2 110/1/2
f 111/1/2 112/1/2 113/1/2
f 113/1/2 112/1/2 114/1/2
f 115/3/2 116/3/2 117/3/2
f 117/3/2 116/3/2 118/3/2
f 119/1/2 120/1/2 121/1/2
f 121/1/2 120/1/2 122/1/2
f 123/4/2 124/4/2 125/4/2
f 125/4/2 124/4/2 126/4/2
f 127/4/2 128/4/2 129/4/2
f 129/4/2 128/4/2 130/4/2
f 131/1/2 132/1/2 133/1/2
f 133/1/2 132/1/2 134/1/2
f 135/3/2 136/3/2 137/3/2
f 137/3/2 136/3/2 138/3/2
f 139/8/2 140/8/2 142/8/2
f 140/6/2 141/6/2 143/6/2
f 142/8/2 140/8/2 143/8/2
f 143/6/2 141/6/2 144/6/2
f 144/6/2 141/6/2 145/6/2
f 143/4/2 144/4/2 146/4/2
f 144/9/2 145/9/2 147/9/2
f 146/4/2 144/4/2 147/4/2
f 147/9/2 145/9/2 148/9/2
f 147/1/2 148/1/2 149/1/2
f 148/9/2 145/9/2 150/9/2
f 149/1/2 148/1/2 150/1/2
f 145/6/2 141/6/2 151/6/2
f 150/9/2 145/9/2 151/9/2
f 150/3/2 151/3/2 152/3/2
f 152/3/2 151/3/2 153/3/2
f 151/6/2 141/6/2 154/6/2
f 153/3/2 151/3/2 154/3/2
f 153/1/2 154/1/2 155/1/2
f 155/1/2 154/1/2 156/1/2
f 154/6/2 141/6/2 157/6/2
f 156/1/2 154/1/2 157/1/2
f 156/4/2 157/4/2 158/4/2
f 157/6/2 141/6/2 159/6/2
f 158/4/2 157/4/2 159/4/2
f 159/6/2 141/6/2 160/6/2
f 160/6/2 141/6/2 161/6/2
f 159/8/2 160/8/2 161/8/2
f 161/6/2 141/6/2 162/6/2
f 159/8/2 161/8/2 163/8/2
f 161/8/2 162/8/2 163/8/2
f 163/8/2 162/8/2 164/8/2
f 167/8/3 166/8/3 165/8/3
f 168/8/3 166/8/3 167/8/3
f 171/4/3 170/4/3 169/4/3
f 172/4/3 170/4/3 171/4/3
f 175/4/3 174/4/3 173/4/3
f 176/4/3 174/4/3 175/4/3
f 179/4/3 178/4/3 177/4/3
f 180/4/3 178/4/3 179/4/3
f 183/4/3 182/4/3 181/4/3
f 184/4/3 182/4/3 183/4/3
f 187/1/3 186/1/3 185/1/3
f 188/1/3 186/1/3 187/1/3
f 191/4/3 190/4/3 189/4/3
f 192/4/3 190/4/3 191/4/3
f 195/1/3 194/1/3 193/1/3
f 196/1/3 194/1/3 195/1/3
f 199/1/3 198/1/3 197/1/3
f 200/1/3 198/1/3 199/1/3
f 203/1/3 202/1/3 201/1/3
f 204/1/3 202/1/3 203/1/3
f 207/3/3 206/3/3 205/3/3
f 208/3/3 206/3/3 207/3/3
f 211/1/3 210/1/3 209/1/3
f 212/1/3 210/1/3 211/1/3
f 215/3/3 214/3/3 213/3/3
f 216/3/3 214/3/3 215/3/3
f 219/3/3 218/3/3 217/3/3
f 220/3/3 218/3/3 219/3/3
f 223/3/3 222/3/3 221/3/3
f 224/3/3 222/3/3 223/3/3
f 227/1/3 226/1/3 225/1/3
f 228/1/3 226/1/3 227/1/3
f 231/3/3 230/3/3 229/3/3
f 232/3/3 230/3/3 231/3/3
f 235/3/3 234/3/3 233/3/3
f 236/3/3 234/3/3 235/3/3
f 239/1/3 238/1/3 237/1/3
f 240/1/3 238/1/3 239/1/3
f 243/1/3 242/1/3 241/1/3
f 244/1/3 242/1/3 243/1/3
f 247/3/3 246/3/3 245/3/3
f 248/3/3 246/3/3 247/3/3
f 251/1/3 250/1/3 249/1/3
f 252/1/3 250/1/3 251/1/3
f 255/4/3 254/4/3 253/4/3
f 256/4/3 254/4/3 255/4/3
f 259/1/3 258/1/3 257/1/3
f 260/1/3 258/1/3 259/1/3
f 263/1/3 262/1/3 261/1/3
f 264/1/3 262/1/3 263/1/3
f 267/4/3 266/4/3 265/4/3
f 268/4/3 266/4/3 267/4/3
f 271/4/3 270/4/3 269/4/3
f 272/4/3 270/4/3 271/4/3
f 275/1/3 274/1/3 273/1/3
f 276/1/3 274/1/3 275/1/3
f 279/4/3 278/4/3 277/4/3
f 280/4/3 278/4/3 279/4/3
f 283/4/3 282/4/3 281/4/3
f 284/4/3 282/4/3 283/4/3
f 287/4/3 286/4/3 285/4/3
f 288/4/3 286/4/3 287/4/3
f 291/4/3 290/4/3 289/4/3
f 292/4/3 290/4/3 291/4/3
f 295/8/3 294/8/3 293/8/3
f 296/8/3 294/8/3 295/8/3
f 297/8/3 294/8/3 296/8/3
f 298/5/3 297/5/3 296/5/3
f 299/5/3 297/5/3 298/5/3
f 300/8/3 294/8/3 297/8/3
f 300/5/3 297/5/3 299/5/3
f 301/6/3 299/6/3 298/6/3
f 302/6/3 299/6/3 301/6/3
f 303/6/3 299/6/3 302/6/3
f 304/6/3 299/6/3 303/6/3
f 305/6/3 301/6/3 298/6/3
f 305/10/3 302/10/3 301/10/3
f 306/6/3 303/6/3 302/6/3
f 306/10/3 302/10/3 305/10/3
f 307/6/3 305/6/3 298/6/3
f 307/6/3 306/6/3 305/6/3
f 308/6/3 303/6/3 306/6/3
f 308/6/3 306/6/3 307/6/3
f 309/6/3 307/6/3 298/6/3
f 309/10/3 308/10/3 307/10/3
f 310/6/3 303/6/3 308/6/3
f 310/10/3 308/10/3 309/10/3
f 311/10/3 304/10/3 303/10/3
f 311/6/3 303/6/3 310/6/3
f 312/6/3 299/6/3 304/6/3
f 312/10/3 304/10/3 311/10/3
f 313/6/3 311/6/3 310/6/3
f 313/6/3 310/6/3 309/6/3
f 313/6/3 312/6/3 311/6/3
f 313/6/3 309/6/3 298/6/3
f 314/7/3 300/7/3 299/7/3
f 314/6/3 312/6/3 313/6/3
f 314/6/3 299/6/3 312/6/3
f 315/8/3 294/8/3 300/8/3
f 315/7/3 300/7/3 314/7/3
f 316/5/3 314/5/3 313/5/3
f 316/8/3 294/8/3 315/8/3
f 316/5/3 315/5/3 314/5/3
f 317/8/3 294/8/3 316/8/3
f 318/5/3 316/5/3 313/5/3
f 318/5/3 317/5/3 316/5/3
f 319/5/3 317/5/3 318/5/3
f 320/5/3 317/5/3 319/5/3
f 321/6/3 319/6/3 318/6/3
f 322/6/3 319/6/3 321/6/3
f 323/6/3 319/6/3 322/6/3
f 324/6/3 319/6/3 323/6/3
f 325/6/3 321/6/3 318/6/3
f 325/10/3 322/10/3 321/10/3
f 326/6/3 323/6/3 322/6/3
f 326/10/3 322/10/3 325/10/3
f 327/6/3 325/6/3 318/6/3
f 327/6/3 326/6/3 325/6/3
f 328/6/3 323/6/3 326/6/3
f 328/6/3 326/6/3 327/6/3
f 329/6/3 327/6/3 318/6/3
f 329/10/3 328/10/3 327/10/3
f 330/6/3 323/6/3 328/6/3
f 330/10/3 328/10/3 329/10/3
f 331/10/3 324/10/3 323/10/3
f 331/6/3 323/6/3 330/6/3
f 332/6/3 319/6/3 324/6/3
f 332/10/3 324/10/3 331/10/3
f 333/6/3 331/6/3 330/6/3
f 333/6/3 330/6/3 329/6/3
f 333/6/3 332/6/3 331/6/3
f 333/6/3 329/6/3 318/6/3
f 334/7/3 320/7/3 319/7/3
f 334/6/3 332/6/3 333/6/3
f 334/6/3 319/6/3 332/6/3
f 335/5/3 317/5/3 320/5/3
f 335/7/3 320/7/3 334/7/3
f 336/8/3 294/8/3 317/8/3
f 336/5/3 317/5/3 335/5/3
f 337/5/3 335/5/3 334/5/3
f 337/5/3 334/5/3 333/5/3
f 338/5/3 335/5/3 337/5/3
f 339/2/3 336/2/3 335/2/3
f 339/5/3 335/5/3 338/5/3
f 340/8/3 294/8/3 336/8/3
f 340/2/3 336/2/3 339/2/3
f 341/6/3 338/6/3 337/6/3
f 342/6/3 338/6/3 341/6/3
f 343/6/3 338/6/3 342/6/3
f 344/6/3 338/6/3 343/6/3
f 345/6/3 341/6/3 337/6/3
f 345/10/3 342/10/3 341/10/3
f 346/6/3 343/6/3 342/6/3
f 346/10/3 342/10/3 345/10/3
f 347/6/3 345/6/3 337/6/3
f 347/6/3 346/6/3 345/6/3
f 348/6/3 343/6/3 346/6/3
f 348/6/3 346/6/3 347/6/3
f 349/6/3 347/6/3 337/6/3
f 349/10/3 348/10/3 347/10/3
f 350/6/3 343/6/3 348/6/3
f 350/10/3 348/10/3 349/10/3
f 351/10/3 344/10/3 343/10/3
f 351/6/3 343/6/3 350/6/3
f 352/6/3 338/6/3 344/6/3
f 352/10/3 344/10/3 351/10/3
f 353/6/3 351/6/3 350/6/3
f 353/6/3 350/6/3 349/6/3
f 353/6/3 352/6/3 351/6/3
f 353/6/3 349/6/3 337/6/3
f 354/7/3 339/7/3 338/7/3
f 354/6/3 352/6/3 353/6/3
f 354/6/3 338/6/3 352/6/3
f 355/5/3 340/5/3 339/5/3
f 355/7/3 339/7/3 354/7/3
f 356/5/3 354/5/3 353/5/3
f 356/5/3 340/5/3 355/5/3
f 356/5/3 355/5/3 354/5/3
f 357/8/3 294/8/3 340/8/3
f 357/5/3 340/5/3 356/5/3
f 358/5/3 356/5/3 353/5/3
f 359/5/3 356/5/3 358/5/3
f 360/8/3 357/8/3 356/8/3
f 360/5/3 356/5/3 359/5/3
f 361/6/3 359/6/3 358/6/3
f 362/6/3 359/6/3 361/6/3
f 363/6/3 359/6/3 362/6/3
f 364/6/3 359/6/3 363/6/3
f 365/6/3 361/6/3 358/6/3
f 365/10/3 362/10/3 361/10/3
f 366/6/3 363/6/3 362/6/3
f 366/10/3 362/10/3 365/10/3
f 367/6/3 365/6/3 358/6/3
f 367/6/3 366/6/3 365/6/3
f 368/6/3 363/6/3 366/6/3
f 368/6/3 366/6/3 367/6/3
f 369/6/3 367/6/3 358/6/3
f 369/10/3 368/10/3 367/10/3
f 370/6/3 363/6/3 368/6/3
f 370/10/3 368/10/3 369/10/3
f 371/10/3 364/10/3 363/10/3
f 371/6/3 363/6/3 370/6/3
f 372/6/3 359/6/3 364/6/3
f 372/10/3 364/10/3 371/10/3
f 373/6/3 371/6/3 370/6/3
f 373/6/3 370/6/3 369/6/3
f 373/6/3 372/6/3 371/6/3
f 373/6/3 369/6/3 358/6/3
f 374/7/3 360/7/3 359/7/3
f 374/6/3 372/6/3 373/6/3
f 374/6/3 359/6/3 372/6/3
f 375/8/3 357/8/3 360/8/3
f 375/7/3 360/7/3 374/7/3
f 376/5/3 374/5/3 373/5/3
f 376/5/3 375/5/3 374/5/3
f 377/8/3 357/8/3 375/8/3
f 377/5/3 375/5/3 376/5/3
f 378/8/3 377/8/3 376/8/3
f 379/8/3 377/8/3 378/8/3
f 380/8/3 294/8/3 357/8/3
f 380/8/3 377/8/3 379/8/3
f 380/8/3 357/8/3 377/8/3
f 381/6/4 382/6/4 383/6/4
f 383/6/4 382/6/4 384/6/4
f 385/6/4 386/6/4 388/6/4
f 388/6/4 386/6/4 389/6/4
f 385/6/4 388/6/4 390/6/4
f 389/6/4 386/6/4 391/6/4
f 385/6/4 390/6/4 392/6/4
f 390/6/4 391/6/4 392/6/4
f 386/8/4 387/8/4 393/8/4
f 392/6/4 391/6/4 393/6/4
f 391/6/4 386/6/4 393/6/4
f 393/8/4 387/8/4 394/8/4
f 397/8/5 396/8/5 395/8/5
f 398/8/5 396/8/5 397/8/5
f 399/8/5 397/8/5 395/8/5
f 400/9/5 398/9/5 397/9/5
f 400/8/5 397/8/5 399/8/5
f 401/8/5 396/8/5 398/8/5
f 401/9/5 398/9/5 400/9/5
f 402/8/5 396/8/5 401/8/5
f 403/8/5 399/8/5 395/8/5
f 404/9/5 400/9/5 399/9/5
f 404/8/5 399/8/5 403/8/5
f 404/9/5 401/9/5 400/9/5
f 404/9/5 402/9/5 401/9/5
f 405/8/5 396/8/5 402/8/5
f 405/9/5 402/9/5 404/9/5
f 406/8/5 396/8/5 405/8/5
f 407/6/5 404/6/5 403/6/5
f 407/9/5 405/9/5 404/9/5
f 408/6/5 406/6/5 405/6/5
f 408/9/5 405/9/5 407/9/5
f 409/6/5 407/6/5 403/6/5
f 409/6/5 408/6/5 407/6/5
f 410/6/5 406/6/5 408/6/5
f 410/6/5 408/6/5 409/6/5
f 413/6/5 412/6/5 411/6/5
f 414/6/5 412/6/5 413/6/5
f 415/8/6 416/8/6 417/8/6
f 417/8/6 416/8/6 418/8/6
f 415/8/6 417/8/6 419/8/6
f 419/8/6 417/8/6 420/8/6
f 418/8/6 416/8/6 421/8/6
f 421/8/6 416/8/6 422/8/6
f 415/8/6 419/8/6 423/8/6
f 423/8/6 419/8/6 424/8/6
f 422/8/6 416/8/6 425/8/6
f 425/8/6 416/8/6 426/8/6
f 427/4/6 428/4/6 430/4/6
f 430/4/6 428/4/6 431/4/6
f 429/4/6 430/4/6 434/4/6
f 431/4/6 432/4/6 434/4/6
f 430/4/6 431/4/6 434/4/6
f 434/4/6 432/4/6 435/4/6
f 435/4/6 432/4/6 436/4/6
f 436/4/6 432/4/6 437/4/6
f 433/4/6 434/4/6 439/4/6
f 434/4/6 435/4/6 439/4/6
f 439/4/6 435/4/6 440/4/6
f 437/4/6 438/4/6 441/4/6
f 436/4/6 437/4/6 441/4/6
f 441/4/6 438/4/6 442/4/6
f 433/4/6 439/4/6 443/4/6
f 443/4/6 439/4/6 444/4/6
f 442/4/6 438/4/6 445/4/6
f 445/4/6 438/4/6 446/4/6
f 447/1/6 448/1/6 450/1/6
f 450/1/6 448/1/6 451/1/6
f 449/1/6 450/1/6 454/1/6
f 451/1/6 452/1/6 454/1/6
f 450/1/6 451/1/6 454/1/6
f 454/1/6 452/1/6 455/1/6
f 455/1/6 452/1/6 456/1/6
f 456/1/6 452/1/6 457/1/6
f 453/1/6 454/1/6 459/1/6
f 454/1/6 455/1/6 459/1/6
f 459/1/6 455/1/6 460/1/6
f 457/1/6 458/1/6 461/1/6
f 456/1/6 457/1/6 461/1/6
f 461/1/6 458/1/6 462/1/6
f 453/1/6 459/1/6 463/1/6
f 463/1/6 459/1/6 464/1/6
f 462/1/6 458/1/6 465/1/6
f 465/1/6 458/1/6 466/1/6
f 453/1/6 463/1/6 467/1/6
f 467/1/6 463/1/6 468/1/6
f 466/1/6 458/1/6 469/1/6
f 469/1/6 458/1/6 470/1/6
f 471/3/6 472/3/6 474/3/6
f 474/3/6 472/3/6 475/3/6
f 473/3/6 474/3/6 478/3/6
f 475/3/6 476/3/6 478/3/6
f 474/3/6 475/3/6 478/3/6
f 478/3/6 476/3/6 479/3/6
f 479/3/6 476/3/6 480/3/6
f 480/3/6 476/3/6 481/3/6
f 477/3/6 478/3/6 484/3/6
f 478/3/6 479/3/6 484/3/6
f 484/3/6 479/3/6 485/3/6
f 485/3/6 479/3/6 486/3/6
f 480/3/6 481/3/6 487/3/6
f 481/3/6 482/3/6 487/3/6
f 487/3/6 482/3/6 488/3/6
f 488/3/6 482/3/6 489/3/6
f 484/3/6 485/3/6 491/3/6
f 483/3/6 484/3/6 491/3/6
f 491/3/6 485/3/6 492/3/6
f 489/3/6 490/3/6 493/3/6
f 488/3/6 489/3/6 493/3/6
f 493/3/6 490/3/6 494/3/6
f 483/3/6 491/3/6 495/3/6
f 495/3/6 491/3/6 496/3/6
f 494/3/6 490/3/6 497/3/6
f 497/3/6 490/3/6 498/3/6
f 499/1/6 500/1/6 502/1/6
f 502/1/6 500/1/6 503/1/6
f 501/1/6 502/1/6 506/1/6
f 503/1/6 504/1/6 506/1/6
f 502/1/6 503/1/6 506/1/6
f 506/1/6 504/1/6 507/1/6
f 507/1/6 504/1/6 508/1/6
f 508/1/6 504/1/6 509/1/6
f 505/1/6 506/1/6 512/1/6
f 506/1/6 507/1/6 512/1/6
f 512/1/6 507/1/6 513/1/6
f 513/1/6 507/1/6 514/1/6
f 508/1/6 509/1/6 515/1/6
f 509/1/6 510/1/6 515/1/6
f 515/1/6 510/1/6 516/1/6
f 516/1/6 510/1/6 517/1/6
f 512/1/6 513/1/6 519/1/6
f 511/1/6 512/1/6 519/1/6
f 519/1/6 513/1/6 520/1/6
f 517/1/6 518/1/6 521/1/6
f 516/1/6 517/1/6 521/1/6
f 521/1/6 518/1/6 522/1/6
f 511/1/6 519/1/6 523/1/6
f 523/1/6 519/1/6 524/1/6
f 522/1/6 518/1/6 525/1/6
f 525/1/6 518/1/6 526/1/6
f 527/4/6 528/4/6 530/4/6
f 530/4/6 528/4/6 531/4/6
f 531/4/6 528/4/6 532/4/6
f 532/4/6 528/4/6 533/4/6
f 529/4/6 530/4/6 536/4/6
f 530/4/6 531/4/6 536/4/6
f 536/4/6 531/4/6 537/4/6
f 531/8/6 532/8/6 538/8/6
f 537/4/6 531/4/6 538/4/6
f 533/4/6 534/4/6 539/4/6
f 538/8/6 532/8/6 539/8/6
f 532/4/6 533/4/6 539/4/6
f 539/4/6 534/4/6 540/4/6
f 540/4/6 534/4/6 541/4/6
f 535/4/6 536/4/6 544/4/6
f 536/4/6 537/4/6 544/4/6
f 544/4/6 537/4/6 545/4/6
f 537/8/6 538/8/6 546/8/6
f 545/4/6 537/4/6 546/4/6
f 538/8/6 539/8/6 546/8/6
f 539/8/6 540/8/6 546/8/6
f 541/4/6 542/4/6 547/4/6
f 546/8/6 540/8/6 547/8/6
f 540/4/6 541/4/6 547/4/6
f 547/4/6 542/4/6 548/4/6
f 548/4/6 542/4/6 549/4/6
f 544/4/6 545/4/6 551/4/6
f 543/4/6 544/4/6 551/4/6
f 545/8/6 546/8/6 552/8/6
f 551/4/6 545/4/6 552/4/6
f 546/8/6 547/8/6 552/8/6
f 547/8/6 548/8/6 552/8/6
f 549/4/6 550/4/6 553/4/6
f 552/8/6 548/8/6 553/8/6
f 548/4/6 549/4/6 553/4/6
f 553/4/6 550/4/6 554/4/6
f 543/4/6 551/4/6 555/4/6
f 551/8/6 552/8/6 556/8/6
f 555/4/6 551/4/6 556/4/6
f 552/8/6 553/8/6 556/8/6
f 553/8/6 554/8/6 556/8/6
f 556/8/6 554/8/6 557/8/6
f 557/8/6 554/8/6 558/8/6
f 558/8/6 554/8/6 559/8/6
f 559/8/6 554/8/6 560/8/6
f 560/8/6 554/8/6 561/8/6
f 561/8/6 554/8/6 562/8/6
f 562/8/6 554/8/6 563/8/6
f 563/8/6 554/8/6 564/8/6
f 564/8/6 554/8/6 565/8/6
f 565/8/6 554/8/6 566/8/6
f 554/4/6 550/4/6 567/4/6
f 566/8/6 554/8/6 567/8/6
f 567/4/6 550/4/6 568/4/6
f 569/6/6 570/6/6 571/6/6
f 571/6/6 570/6/6 572/6/6
f 573/8/6 574/8/6 575/8/6
f 575/8/6 574/8/6 576/8/6
